<?xml version="1.0" encoding="UTF-8"?>
<svg xmlns="http://www.w3.org/2000/svg" xmlns:xlink="http://www.w3.org/1999/xlink" width="1920" height="1080" viewBox="0 0 1920 1080">
<defs>
<g>
<g id="glyph-0-0">
<path d="M 5.738281 -5.769531 C 6.027344 -5.46875 6.25 -5.105469 6.414062 -4.679688 C 6.578125 -4.253906 6.660156 -3.78125 6.660156 -3.265625 C 6.660156 -2.851562 6.605469 -2.472656 6.496094 -2.121094 C 6.390625 -1.769531 6.238281 -1.457031 6.039062 -1.179688 C 5.851562 -0.917969 5.628906 -0.6875 5.371094 -0.488281 C 5.113281 -0.292969 4.824219 -0.136719 4.503906 -0.0234375 C 4.511719 0.316406 4.632812 0.617188 4.871094 0.886719 C 5.105469 1.15625 5.363281 1.292969 5.636719 1.292969 C 5.886719 1.292969 6.078125 1.28125 6.210938 1.265625 C 6.34375 1.25 6.453125 1.234375 6.539062 1.21875 L 6.539062 1.582031 C 6.402344 1.621094 6.226562 1.664062 6.019531 1.707031 C 5.8125 1.753906 5.523438 1.773438 5.15625 1.773438 C 4.949219 1.773438 4.75 1.746094 4.550781 1.683594 C 4.355469 1.625 4.175781 1.53125 4.015625 1.398438 C 3.855469 1.265625 3.722656 1.097656 3.617188 0.894531 C 3.511719 0.691406 3.441406 0.441406 3.414062 0.148438 C 2.972656 0.132812 2.566406 0.0390625 2.191406 -0.136719 C 1.816406 -0.308594 1.492188 -0.546875 1.226562 -0.847656 C 0.957031 -1.152344 0.746094 -1.511719 0.59375 -1.921875 C 0.445312 -2.332031 0.367188 -2.777344 0.367188 -3.265625 C 0.367188 -3.796875 0.453125 -4.269531 0.617188 -4.6875 C 0.785156 -5.105469 1.011719 -5.464844 1.304688 -5.769531 C 1.59375 -6.070312 1.929688 -6.300781 2.3125 -6.460938 C 2.695312 -6.621094 3.097656 -6.699219 3.515625 -6.699219 C 3.949219 -6.699219 4.355469 -6.617188 4.742188 -6.457031 C 5.125 -6.292969 5.457031 -6.0625 5.738281 -5.769531 M 5.050781 -1.128906 C 5.222656 -1.410156 5.347656 -1.726562 5.425781 -2.078125 C 5.503906 -2.433594 5.542969 -2.828125 5.542969 -3.265625 C 5.542969 -3.714844 5.5 -4.125 5.410156 -4.5 C 5.324219 -4.875 5.195312 -5.195312 5.027344 -5.460938 C 4.855469 -5.722656 4.644531 -5.925781 4.390625 -6.070312 C 4.136719 -6.21875 3.84375 -6.289062 3.515625 -6.289062 C 3.144531 -6.289062 2.832031 -6.207031 2.574219 -6.035156 C 2.316406 -5.867188 2.105469 -5.640625 1.941406 -5.359375 C 1.789062 -5.085938 1.671875 -4.769531 1.597656 -4.410156 C 1.523438 -4.046875 1.484375 -3.664062 1.484375 -3.265625 C 1.484375 -2.820312 1.523438 -2.421875 1.605469 -2.066406 C 1.683594 -1.710938 1.8125 -1.394531 1.984375 -1.117188 C 2.148438 -0.84375 2.359375 -0.632812 2.609375 -0.480469 C 2.863281 -0.328125 3.164062 -0.253906 3.515625 -0.253906 C 3.84375 -0.253906 4.140625 -0.332031 4.402344 -0.484375 C 4.667969 -0.636719 4.882812 -0.851562 5.050781 -1.128906 Z "/>
</g>
<g id="glyph-0-1">
<path d="M 1.914062 -0.53125 C 1.914062 -0.359375 1.851562 -0.210938 1.726562 -0.0898438 C 1.601562 0.03125 1.453125 0.09375 1.28125 0.09375 C 1.109375 0.09375 0.960938 0.03125 0.835938 -0.0898438 C 0.710938 -0.210938 0.648438 -0.359375 0.648438 -0.53125 C 0.648438 -0.703125 0.710938 -0.851562 0.835938 -0.976562 C 0.960938 -1.101562 1.109375 -1.160156 1.28125 -1.160156 C 1.453125 -1.160156 1.601562 -1.101562 1.726562 -0.976562 C 1.851562 -0.851562 1.914062 -0.703125 1.914062 -0.53125 Z "/>
</g>
<g id="glyph-0-2">
<path d="M 5.953125 -1.925781 L 5.828125 0 L 0.398438 0 L 0.398438 -0.328125 C 0.488281 -0.332031 0.613281 -0.347656 0.765625 -0.367188 C 0.917969 -0.386719 1.019531 -0.40625 1.066406 -0.429688 C 1.164062 -0.476562 1.230469 -0.535156 1.269531 -0.609375 C 1.308594 -0.683594 1.328125 -0.777344 1.328125 -0.890625 L 1.328125 -5.59375 C 1.328125 -5.695312 1.3125 -5.785156 1.277344 -5.863281 C 1.242188 -5.941406 1.171875 -6.003906 1.066406 -6.054688 C 0.980469 -6.09375 0.871094 -6.128906 0.730469 -6.160156 C 0.589844 -6.191406 0.480469 -6.210938 0.398438 -6.214844 L 0.398438 -6.542969 L 5.460938 -6.542969 L 5.460938 -4.964844 L 5.113281 -4.964844 C 5.050781 -5.199219 4.917969 -5.449219 4.714844 -5.710938 C 4.511719 -5.972656 4.316406 -6.117188 4.132812 -6.140625 C 4.035156 -6.15625 3.921875 -6.164062 3.789062 -6.171875 C 3.660156 -6.175781 3.507812 -6.179688 3.339844 -6.179688 L 2.308594 -6.179688 L 2.308594 -3.578125 L 3.046875 -3.578125 C 3.285156 -3.578125 3.457031 -3.601562 3.566406 -3.644531 C 3.675781 -3.691406 3.773438 -3.765625 3.855469 -3.867188 C 3.921875 -3.957031 3.980469 -4.078125 4.027344 -4.226562 C 4.074219 -4.375 4.105469 -4.515625 4.121094 -4.648438 L 4.46875 -4.648438 L 4.46875 -2.085938 L 4.121094 -2.085938 C 4.109375 -2.230469 4.078125 -2.386719 4.023438 -2.550781 C 3.96875 -2.71875 3.914062 -2.835938 3.855469 -2.910156 C 3.761719 -3.03125 3.652344 -3.109375 3.53125 -3.144531 C 3.410156 -3.183594 3.246094 -3.199219 3.046875 -3.199219 L 2.308594 -3.199219 L 2.308594 -1.238281 C 2.308594 -1.042969 2.324219 -0.886719 2.351562 -0.773438 C 2.378906 -0.660156 2.433594 -0.574219 2.511719 -0.515625 C 2.59375 -0.457031 2.703125 -0.421875 2.839844 -0.402344 C 2.980469 -0.386719 3.175781 -0.378906 3.429688 -0.378906 C 3.53125 -0.378906 3.664062 -0.378906 3.832031 -0.378906 C 3.996094 -0.378906 4.136719 -0.382812 4.25 -0.398438 C 4.367188 -0.410156 4.488281 -0.429688 4.613281 -0.464844 C 4.738281 -0.496094 4.828125 -0.539062 4.878906 -0.59375 C 5.019531 -0.742188 5.167969 -0.964844 5.324219 -1.265625 C 5.480469 -1.566406 5.578125 -1.785156 5.621094 -1.925781 Z "/>
</g>
<g id="glyph-0-3">
<path d="M 6.71875 -3.234375 C 6.71875 -2.675781 6.613281 -2.195312 6.40625 -1.785156 C 6.195312 -1.375 5.925781 -1.039062 5.589844 -0.78125 C 5.25 -0.519531 4.871094 -0.324219 4.449219 -0.195312 C 4.027344 -0.0664062 3.59375 0 3.144531 0 L 0.433594 0 L 0.433594 -0.328125 C 0.523438 -0.328125 0.636719 -0.335938 0.78125 -0.351562 C 0.925781 -0.371094 1.019531 -0.390625 1.066406 -0.410156 C 1.15625 -0.449219 1.222656 -0.507812 1.265625 -0.589844 C 1.308594 -0.667969 1.328125 -0.761719 1.328125 -0.871094 L 1.328125 -5.59375 C 1.328125 -5.699219 1.308594 -5.792969 1.273438 -5.875 C 1.238281 -5.957031 1.167969 -6.023438 1.066406 -6.074219 C 0.96875 -6.121094 0.867188 -6.152344 0.757812 -6.175781 C 0.644531 -6.195312 0.550781 -6.210938 0.46875 -6.214844 L 0.46875 -6.542969 L 3.328125 -6.542969 C 3.722656 -6.542969 4.109375 -6.484375 4.492188 -6.363281 C 4.871094 -6.238281 5.203125 -6.078125 5.488281 -5.871094 C 5.871094 -5.597656 6.171875 -5.238281 6.390625 -4.796875 C 6.609375 -4.351562 6.71875 -3.832031 6.71875 -3.234375 M 5.589844 -3.234375 C 5.589844 -3.675781 5.53125 -4.070312 5.414062 -4.425781 C 5.296875 -4.78125 5.125 -5.089844 4.902344 -5.355469 C 4.691406 -5.605469 4.429688 -5.804688 4.121094 -5.949219 C 3.8125 -6.09375 3.46875 -6.164062 3.089844 -6.164062 C 2.964844 -6.164062 2.820312 -6.164062 2.664062 -6.160156 C 2.503906 -6.152344 2.386719 -6.148438 2.308594 -6.148438 L 2.308594 -1.121094 C 2.308594 -0.839844 2.390625 -0.648438 2.554688 -0.539062 C 2.71875 -0.433594 2.96875 -0.378906 3.304688 -0.378906 C 3.695312 -0.378906 4.039062 -0.445312 4.328125 -0.585938 C 4.621094 -0.722656 4.859375 -0.914062 5.039062 -1.160156 C 5.230469 -1.417969 5.371094 -1.71875 5.457031 -2.058594 C 5.546875 -2.398438 5.589844 -2.789062 5.589844 -3.234375 Z "/>
</g>
</g>
</defs>
<g fill="rgb(73.333333%, 73.333333%, 73.333333%)" fill-opacity="1">
<use xlink:href="#glyph-0-0" x="30" y="28.65918"/>
<use xlink:href="#glyph-0-1" x="37" y="28.65918"/>
<use xlink:href="#glyph-0-2" x="40" y="28.65918"/>
<use xlink:href="#glyph-0-1" x="46" y="28.65918"/>
<use xlink:href="#glyph-0-3" x="49" y="28.65918"/>
<use xlink:href="#glyph-0-1" x="56" y="28.65918"/>
</g>
</svg>
